<svg width="39" height="45" viewBox="0 0 39 45" fill="none" xmlns="http://www.w3.org/2000/svg">
<path d="M16.8956 36.1221L9.71652 29.0004L11.5277 27.1892L16.8956 32.4644L27.2168 22.121L29.0501 23.9675L16.8956 36.1221ZM3.32632 44.2708C2.42765 44.2708 1.65209 43.9446 0.999652 43.2921C0.347214 42.6397 0.0209961 41.8641 0.0209961 40.9655V7.78059C0.0209961 6.88191 0.347214 6.10636 0.999652 5.45392C1.65209 4.80148 2.42765 4.47526 3.32632 4.47526H7.55709V0.464844H10.4437V4.47526H28.6447V0.464844H31.4651V4.47526H35.6739C36.5726 4.47526 37.3481 4.80148 38.0006 5.45392C38.653 6.10636 38.9792 6.88191 38.9792 7.78059V40.9655C38.9792 41.8641 38.653 42.6397 38.0006 43.2921C37.3481 43.9446 36.5726 44.2708 35.6739 44.2708H3.32632ZM3.32632 41.6707H35.6739C35.8502 41.6707 36.0118 41.5972 36.1587 41.4503C36.3056 41.3034 36.3791 41.1418 36.3791 40.9655V18.2032H2.62112V40.9655C2.62112 41.1418 2.69457 41.3034 2.84146 41.4503C2.9884 41.5972 3.15002 41.6707 3.32632 41.6707ZM2.62112 15.6031H36.3791V7.78059C36.3791 7.60428 36.3056 7.44267 36.1587 7.29573C36.0118 7.14884 35.8502 7.07539 35.6739 7.07539H3.32632C3.15002 7.07539 2.9884 7.14884 2.84146 7.29573C2.69457 7.44267 2.62112 7.60428 2.62112 7.78059V15.6031Z" fill="white"/>
</svg>
