<svg width="41" height="39" viewBox="0 0 41 39" fill="none" xmlns="http://www.w3.org/2000/svg">
<path d="M15.5287 27.6452L29.2125 19.5513L15.5287 11.4574V27.6452ZM20.5 38.5958C17.6983 38.5958 15.0504 38.0959 12.5562 37.0961C10.0621 36.0962 7.88396 34.7314 6.02187 33.0015C4.15979 31.2716 2.69062 29.2481 1.61437 26.9311C0.538125 24.614 0 22.1541 0 19.5513C0 16.9168 0.538125 14.4411 1.61437 12.124C2.69062 9.80689 4.15979 7.79135 6.02187 6.07735C7.88396 4.36334 10.0621 3.00643 12.5562 2.00659C15.0504 1.00675 17.6983 0.506836 20.5 0.506836C23.3358 0.506836 26.0008 1.00675 28.495 2.00659C30.9892 3.00643 33.1587 4.36334 35.0037 6.07735C36.8488 7.79135 38.3094 9.80689 39.3856 12.124C40.4619 14.4411 41 16.9168 41 19.5513C41 22.1541 40.4619 24.614 39.3856 26.9311C38.3094 29.2481 36.8488 31.2716 35.0037 33.0015C33.1587 34.7314 30.9892 36.0962 28.495 37.0961C26.0008 38.0959 23.3358 38.5958 20.5 38.5958ZM20.5 35.7391C25.3517 35.7391 29.4688 34.16 32.8512 31.0018C36.2337 27.8436 37.925 24.0268 37.925 19.5513C37.925 15.0441 36.2337 11.2194 32.8512 8.07702C29.4688 4.93468 25.3517 3.36351 20.5 3.36351C15.6825 3.36351 11.574 4.93468 8.17437 8.07702C4.77479 11.2194 3.075 15.0441 3.075 19.5513C3.075 24.0268 4.77479 27.8436 8.17437 31.0018C11.574 34.16 15.6825 35.7391 20.5 35.7391Z" fill="white"/>
</svg>
