<svg width="39" height="39" viewBox="0 0 39 39" fill="none" xmlns="http://www.w3.org/2000/svg">
<g clip-path="url(#clip0_21_1152)">
<path d="M19.5081 39.0163C30.2822 39.0163 39.0163 30.2822 39.0163 19.5081C39.0163 8.73409 30.2822 0 19.5081 0C8.73409 0 0 8.73409 0 19.5081C0 30.2822 8.73409 39.0163 19.5081 39.0163Z" fill="#215E77"/>
<path d="M23.451 10.0862H15.5583C12.13 10.0862 10.0862 12.129 10.0862 15.5556V23.4349C10.0862 26.871 12.13 28.9138 15.5583 28.9138H23.4416C26.8699 28.9138 28.9137 26.871 28.9137 23.4444V15.5556C28.9232 12.129 26.8793 10.0862 23.451 10.0862ZM19.5047 23.1525C17.4891 23.1525 15.8503 21.5145 15.8503 19.5C15.8503 17.4854 17.4891 15.8474 19.5047 15.8474C21.5202 15.8474 23.159 17.4854 23.159 19.5C23.159 21.5145 21.5202 23.1525 19.5047 23.1525ZM25.0804 14.6801C25.0333 14.7931 24.9674 14.8966 24.8826 14.9908C24.7884 15.0755 24.6848 15.1414 24.5718 15.1885C24.4588 15.2355 24.3364 15.2638 24.2139 15.2638C23.9596 15.2638 23.7242 15.1696 23.5452 14.9908C23.4604 14.8966 23.3945 14.7931 23.3474 14.6801C23.3003 14.5671 23.2721 14.4448 23.2721 14.3224C23.2721 14.2 23.3003 14.0776 23.3474 13.9647C23.3945 13.8423 23.4604 13.7481 23.5452 13.654C23.7618 13.4375 24.0915 13.3339 24.3929 13.3998C24.4588 13.4093 24.5153 13.4281 24.5718 13.4563C24.6283 13.4751 24.6848 13.5034 24.7413 13.541C24.7884 13.5693 24.8355 13.6164 24.8826 13.654C24.9674 13.7481 25.0333 13.8423 25.0804 13.9647C25.1275 14.0776 25.1558 14.2 25.1558 14.3224C25.1558 14.4448 25.1275 14.5671 25.0804 14.6801Z" fill="white"/>
</g>
<defs>
<clipPath id="clip0_21_1152">
<rect width="39" height="39" fill="white"/>
</clipPath>
</defs>
</svg>
