<svg width="39" height="39" viewBox="0 0 39 39" fill="none" xmlns="http://www.w3.org/2000/svg">
<g clip-path="url(#clip0_21_1176)">
<path d="M19.5081 39.0163C30.2822 39.0163 39.0163 30.2822 39.0163 19.5081C39.0163 8.73409 30.2822 0 19.5081 0C8.73409 0 0 8.73409 0 19.5081C0 30.2822 8.73409 39.0163 19.5081 39.0163Z" fill="#215E77"/>
<path fill-rule="evenodd" clip-rule="evenodd" d="M27.7196 13.1352C28.6176 13.3756 29.3234 14.0813 29.5637 14.9793C29.9981 16.6053 29.9999 19.9998 29.9999 19.9998C29.9999 19.9998 29.9999 23.3944 29.5637 25.0204C29.3234 25.9184 28.6176 26.6241 27.7196 26.8644C26.0937 27.3006 19.5707 27.3006 19.5707 27.3006C19.5707 27.3006 13.0478 27.3006 11.4218 26.8644C10.5238 26.6241 9.8181 25.9184 9.57772 25.0204C9.1416 23.3944 9.1416 19.9998 9.1416 19.9998C9.1416 19.9998 9.1416 16.6053 9.57772 14.9793C9.8181 14.0813 10.5238 13.3756 11.4218 13.1352C13.0478 12.6991 19.5707 12.6991 19.5707 12.6991C19.5707 12.6991 26.0937 12.6991 27.7196 13.1352ZM22.9019 20.0001L17.483 23.1285V16.8717L22.9019 20.0001Z" fill="white"/>
</g>
<defs>
<clipPath id="clip0_21_1176">
<rect width="39" height="39" fill="white"/>
</clipPath>
</defs>
</svg>
