<svg width="9" height="16" viewBox="0 0 9 16" fill="none" xmlns="http://www.w3.org/2000/svg">
<path d="M6.87631 8.00749L6.5915 7.67961L1.56318 1.89084C1.56317 1.89082 1.56315 1.8908 1.56314 1.89078C1.45732 1.76889 1.38824 1.59031 1.38824 1.39187C1.38824 1.19339 1.45734 1.01478 1.56318 0.892891C1.6671 0.773355 1.79165 0.722656 1.90385 0.722656C2.01607 0.722656 2.14064 0.773371 2.24456 0.892947L6.87631 8.00749ZM6.87631 8.00749L6.5915 8.33538L1.56636 14.1205C1.46426 14.2437 1.39906 14.4205 1.40053 14.6151C1.40201 14.8113 1.47087 14.9873 1.57551 15.1078C1.6783 15.2261 1.80137 15.2771 1.91251 15.2782C2.02262 15.2793 2.14454 15.2317 2.24781 15.1183L7.99107 8.50647C8.09691 8.38458 8.16602 8.20597 8.16602 8.00749C8.16602 7.80905 8.09694 7.63047 7.99112 7.50858C7.9911 7.50856 7.99108 7.50854 7.99107 7.50852L2.24461 0.893003L6.87631 8.00749Z" fill="#0C91FC" stroke="white"/>
</svg>
